<svg width="304" height="91" viewBox="0 0 304 91" fill="none" xmlns="http://www.w3.org/2000/svg">
<path d="M111.361 42.7537C109.513 42.7537 107.83 42.3907 106.312 41.6647C104.816 40.9167 103.606 39.8827 102.682 38.5627L106.708 35.1637C107.28 35.9777 108.006 36.6267 108.886 37.1107C109.788 37.5947 110.679 37.8367 111.559 37.8367C112.417 37.8367 113.099 37.6607 113.605 37.3087C114.133 36.9347 114.397 36.4617 114.397 35.8897C114.397 35.2957 114.144 34.7787 113.638 34.3387C113.132 33.8987 112.296 33.4807 111.13 33.0847L109.48 32.5237C105.542 31.2037 103.573 28.9487 103.573 25.7587C103.573 23.5367 104.321 21.7767 105.817 20.4787C107.335 19.1807 109.282 18.5317 111.658 18.5317C114.694 18.5317 117.213 19.6097 119.215 21.7657L115.783 25.3957C114.705 24.0977 113.352 23.4487 111.724 23.4487C110.954 23.4487 110.283 23.6027 109.711 23.9107C109.161 24.2187 108.886 24.6587 108.886 25.2307C108.886 25.8247 109.15 26.3087 109.678 26.6827C110.206 27.0347 111.152 27.4527 112.516 27.9367L114.166 28.5307C117.906 29.8727 119.765 32.2047 119.743 35.5267C119.743 37.6607 118.951 39.3987 117.367 40.7407C115.805 42.0827 113.803 42.7537 111.361 42.7537Z" fill="white"/>
<path d="M123.379 42.3577V18.9277H128.626V42.3577H123.379Z" fill="white"/>
<path d="M133.562 18.9277H138.347L145.64 29.0257L152.999 18.9277H157.784V42.3577H152.504V27.9367L145.673 37.3747L138.809 27.9037V42.3577H133.562V18.9277Z" fill="white"/>
<path d="M168.667 35.5927C170.009 36.9787 171.626 37.6717 173.518 37.6717C175.41 37.6717 177.016 36.9787 178.336 35.5927C179.656 34.2067 180.316 32.5567 180.316 30.6427C180.316 28.7287 179.656 27.0787 178.336 25.6927C177.016 24.3067 175.41 23.6137 173.518 23.6137C171.626 23.6137 170.009 24.3067 168.667 25.6927C167.347 27.0787 166.687 28.7287 166.687 30.6427C166.687 32.5567 167.347 34.2067 168.667 35.5927ZM182.065 39.1897C179.711 41.5657 176.862 42.7537 173.518 42.7537C170.174 42.7537 167.314 41.5767 164.938 39.2227C162.584 36.8467 161.407 33.9867 161.407 30.6427C161.407 27.2987 162.584 24.4497 164.938 22.0957C167.314 19.7197 170.174 18.5317 173.518 18.5317C176.862 18.5317 179.711 19.7197 182.065 22.0957C184.441 24.4717 185.629 27.3207 185.629 30.6427C185.629 33.9647 184.441 36.8137 182.065 39.1897Z" fill="white"/>
<path d="M210.436 42.3577H205.915L194.497 27.8707V42.3577H189.25V18.9277H193.771L205.156 33.4147V18.9277H210.436V42.3577Z" fill="white"/>
<path d="M221.326 35.5927C222.668 36.9787 224.285 37.6717 226.177 37.6717C228.069 37.6717 229.675 36.9787 230.995 35.5927C232.315 34.2067 232.975 32.5567 232.975 30.6427C232.975 28.7287 232.315 27.0787 230.995 25.6927C229.675 24.3067 228.069 23.6137 226.177 23.6137C224.285 23.6137 222.668 24.3067 221.326 25.6927C220.006 27.0787 219.346 28.7287 219.346 30.6427C219.346 32.5567 220.006 34.2067 221.326 35.5927ZM234.724 39.1897C232.37 41.5657 229.521 42.7537 226.177 42.7537C222.833 42.7537 219.973 41.5767 217.597 39.2227C215.243 36.8467 214.066 33.9867 214.066 30.6427C214.066 27.2987 215.243 24.4497 217.597 22.0957C219.973 19.7197 222.833 18.5317 226.177 18.5317C229.521 18.5317 232.37 19.7197 234.724 22.0957C237.1 24.4717 238.288 27.3207 238.288 30.6427C238.288 33.9647 237.1 36.8137 234.724 39.1897Z" fill="white"/>
<path d="M248.038 42.3577L238.435 18.9277H244.144L250.381 34.5367L256.585 18.9277H262.36L252.757 42.3577H248.038Z" fill="white"/>
<path d="M105.157 51.9277H107.467L116.509 63.9727L125.551 51.9277H127.861V75.3577H125.353V56.2507L116.509 68.0317L107.665 56.2507V75.3577H105.157V51.9277Z" fill="white"/>
<path d="M131.384 75.3577L141.812 51.9277H143.825L154.286 75.3577H151.646L148.379 68.0647H137.192L133.958 75.3577H131.384ZM142.769 55.4587L138.215 65.7217H147.356L142.769 55.4587Z" fill="white"/>
<path d="M157.815 75.3577V51.9277H165.471C167.627 51.9277 169.321 52.4997 170.553 53.6437C171.785 54.7657 172.401 56.2947 172.401 58.2307C172.401 60.0347 171.851 61.4977 170.751 62.6197C169.673 63.7197 168.177 64.3467 166.263 64.5007L175.536 75.3577H172.269L162.996 64.4677H160.323V75.3577H157.815ZM160.323 62.1577H165.174C168.298 62.1577 169.86 60.8487 169.86 58.2307C169.86 55.5907 168.298 54.2707 165.174 54.2707H160.323V62.1577Z" fill="white"/>
<path d="M194.179 75.3577L181.012 64.0387V75.3577H178.537V51.9277H181.012V62.1907L191.803 51.9277H195.202L183.553 63.0487L197.908 75.3577H194.179Z" fill="white"/>
<path d="M200.451 75.3577V51.9277H213.816V54.3037H202.959V62.1247H211.836V64.5007H202.959V72.9817H213.816V75.3577H200.451Z" fill="white"/>
<path d="M223.575 75.3577V54.3037H215.985V51.9277H233.64V54.3037H226.05V75.3577H223.575Z" fill="white"/>
<path d="M237.447 75.3577V51.9277H239.955V75.3577H237.447Z" fill="white"/>
<path d="M266.171 75.3577H263.96L249.011 56.1847V75.3577H246.503V51.9277H248.714L263.663 71.1007V51.9277H266.171V75.3577Z" fill="white"/>
<path d="M283.626 75.7537C279.952 75.7537 276.927 74.5987 274.551 72.2887C272.197 69.9787 271.02 67.0967 271.02 63.6427C271.02 60.2107 272.186 57.3397 274.518 55.0297C276.872 52.6977 279.776 51.5317 283.23 51.5317C286.75 51.5317 289.61 52.5657 291.81 54.6337L290.193 56.4817C288.301 54.7657 285.98 53.9077 283.23 53.9077C280.458 53.9077 278.148 54.8427 276.3 56.7127C274.474 58.5827 273.561 60.8927 273.561 63.6427C273.561 66.4367 274.485 68.7577 276.333 70.6057C278.203 72.4537 280.634 73.3777 283.626 73.3777C286.464 73.3777 288.675 72.7397 290.259 71.4637V64.5337H283.131V62.1577H292.734V72.4867C290.578 74.6647 287.542 75.7537 283.626 75.7537Z" fill="white"/>
<path d="M268.194 41.5991C267.512 42.2811 266.687 42.6221 265.719 42.6221C264.751 42.6221 263.915 42.2811 263.211 41.5991C262.529 40.8951 262.188 40.0591 262.188 39.0911C262.188 38.1231 262.529 37.2981 263.211 36.6161C263.915 35.9121 264.751 35.5601 265.719 35.5601C266.687 35.5601 267.512 35.9121 268.194 36.6161C268.898 37.2981 269.25 38.1231 269.25 39.0911C269.25 40.0591 268.898 40.8951 268.194 41.5991Z" fill="#FF3D00"/>
<path d="M0.627197 50.3846C0.627197 50.0973 0.627197 49.8099 0.675451 49.5225C1.01323 47.4631 2.46085 45.7388 4.43926 45.0683L58.7732 27.2994C60.5104 26.7246 62.3923 27.1557 63.6951 28.4967C64.998 29.8378 65.4323 31.6578 64.805 33.382L45.9859 86.9762C45.3104 88.9399 43.5732 90.3767 41.4501 90.6641C39.3269 90.9515 37.3002 90.0894 36.0939 88.3652C35.9009 88.1257 35.7561 87.8383 35.6596 87.551L26.6361 65.9025C26.5396 65.6631 26.3948 65.5194 26.1536 65.4236L3.71545 55.3178C3.42593 55.1741 3.18466 55.0304 2.94339 54.8867C1.49577 53.8331 0.627197 52.1567 0.627197 50.3846ZM61.2342 31.8015C61.2342 31.4662 61.0412 31.2746 60.9447 31.1789C60.7999 31.0352 60.4621 30.7957 59.9796 30.9394L5.69386 48.7083C4.77704 48.9957 4.58402 49.762 4.53577 50.0973C4.43926 50.7678 4.68053 51.3904 5.21133 51.7736C5.21133 51.7736 5.25958 51.7736 5.30783 51.8215L27.6977 61.8315C28.8075 62.3104 29.6761 63.2204 30.1586 64.3699L39.1821 86.0183C39.2304 86.1141 39.2304 86.1141 39.2304 86.1141C39.6164 86.641 40.2437 86.9283 40.871 86.8325C41.2088 86.7846 41.9809 86.5931 42.2704 85.6831L61.0894 32.0889C61.1859 31.9931 61.2342 31.8973 61.2342 31.8015Z" fill="#FF3D00"/>
<path d="M39.375 10.3933C39.375 9.91438 39.568 9.43543 39.954 9.05228C40.7261 8.28596 41.9325 8.28596 42.7045 9.05228L51.5833 17.8649C52.3553 18.6312 52.3553 19.8286 51.5833 20.5949C50.8112 21.3612 49.6048 21.3612 48.8328 20.5949L39.954 11.7823C39.568 11.3991 39.375 10.9202 39.375 10.3933Z" fill="#FF3D00"/>
<path d="M70.5955 19.206C70.5955 18.727 70.7885 18.2481 71.1745 17.8649L80.0532 9.05228C80.8253 8.28596 82.0317 8.28596 82.8037 9.05228C83.5758 9.81859 83.5758 11.016 82.8037 11.7823L73.925 20.5949C73.1529 21.3612 71.9466 21.3612 71.1745 20.5949C70.7885 20.1639 70.5955 19.6849 70.5955 19.206Z" fill="#FF3D00"/>
<path d="M59.4006 14.6077V2.15505C59.4006 1.10136 60.2692 0.239258 61.3308 0.239258C62.3924 0.239258 63.2609 1.10136 63.2609 2.15505V14.6077C63.2609 15.6614 62.3924 16.5235 61.3308 16.5235C60.2692 16.5235 59.4006 15.6614 59.4006 14.6077Z" fill="#FF3D00"/>
<path d="M70.4504 41.2371C70.4504 40.7581 70.6435 40.2792 71.0295 39.896C71.8015 39.1297 73.0079 39.1297 73.78 39.896L82.6587 48.7086C83.4307 49.475 83.4307 50.6723 82.6587 51.4386C81.8866 52.205 80.6803 52.205 79.9082 51.4386L71.0295 42.626C70.6435 42.2429 70.4504 41.716 70.4504 41.2371Z" fill="#FF3D00"/>
<path d="M75.083 30.1736C75.083 29.1199 75.9516 28.2578 77.0132 28.2578H89.5592C90.6208 28.2578 91.4893 29.1199 91.4893 30.1736C91.4893 31.2273 90.6208 32.0894 89.5592 32.0894H77.0132C75.9516 32.0894 75.083 31.2273 75.083 30.1736Z" fill="#FF3D00"/>
<path d="M61.3346 27.5949L25.7471 62.9175L28.4767 65.6268L64.0643 30.3042L61.3346 27.5949Z" fill="#FF3D00"/>
</svg>
