<?xml version="1.0" encoding="utf-8"?><svg xmlns="http://www.w3.org/2000/svg" xmlns:xlink="http://www.w3.org/1999/xlink"><symbol viewBox="0 0 22 24" id="basket" xmlns="http://www.w3.org/2000/svg"><g clip-path="url(#aclip0)"><path d="M10.363 18.443a2.046 2.046 0 00-2.045 2.042 2.046 2.046 0 004.09 0 2.046 2.046 0 00-2.045-2.042zm6.134 0a2.046 2.046 0 00-2.045 2.042 2.046 2.046 0 004.089 0 2.046 2.046 0 00-2.044-2.042zm3.978-8.199L7.413 6.891a.614.614 0 00-.75.73L8.67 16.4h-.786L5.482 5.895a.613.613 0 00-.474-.464l-4.27-.882A.614.614 0 00.489 5.75l3.885.802L6.797 17.15a.613.613 0 00.598.477h12.07a.615.615 0 00.607-.53l.858-6.175a.613.613 0 00-.455-.678zm-8.14 3.91a.613.613 0 01-1.227 0v-2.696a.613.613 0 011.227 0v2.696zm2.625 0a.613.613 0 01-1.227 0v-1.88a.613.613 0 011.227 0v1.88zm2.625 0a.613.613 0 01-1.227 0v-1.226a.613.613 0 011.227 0v1.226z"/></g><path fill-rule="evenodd" clip-rule="evenodd" d="M16.268 4.568a2.996 2.996 0 00-1.693-.523c-.627 0-1.21.193-1.693.523-.28-.843-.492-1.752-.492-2.383C12.39.98 13.37 0 14.575 0s2.185.98 2.185 2.185c0 .631-.212 1.54-.492 2.383zm-4.722 2.274l.024.006v-.011l-.024.005zm4.972 1.217c-1.333-.33-2.766-.681-4.129-1.013a2.185 2.185 0 114.129 1.013zm4.436 1.103c-.866-.217-2.155-.538-3.618-.9a2.995 2.995 0 00.243-1.425c.87.18 1.762.45 2.308.765.596.344.969.928 1.067 1.56zM9.869 6.439c-.36-.086-.706-.167-1.03-.243a2.19 2.19 0 01-.376-2.667 2.188 2.188 0 013.147-.7c.098.738.338 1.599.61 2.353a3.01 3.01 0 00-.449.774c-.628.113-1.305.278-1.902.483zm10.124.075a3.43 3.43 0 01-.217.114c-.696-.295-1.587-.526-2.397-.672a3.01 3.01 0 00-.449-.774c.262-.727.494-1.553.599-2.273.095-.067.189-.128.278-.18a2.188 2.188 0 012.986.8 2.188 2.188 0 01-.8 2.985z"/><defs><clipPath id="aclip0"><path transform="translate(0 3.064)" d="M0 0h20.936v20.936H0z"/></clipPath></defs></symbol><symbol viewBox="0 0 220.262 220.262" id="call" xmlns="http://www.w3.org/2000/svg"><path d="M110.127 0C50.606 0 2.184 48.424 2.184 107.944c0 23.295 9.455 44.211 13.521 52.123a7.501 7.501 0 0013.342-6.856c-3.566-6.941-11.862-25.247-11.862-45.268C17.184 56.695 58.878 15 110.127 15c51.254 0 92.951 41.695 92.951 92.944 0 51.251-41.697 92.946-92.951 92.946-20.044 0-35.971-6.94-41.889-9.925a7.493 7.493 0 00-5.66-.447l-47.242 15.097a7.5 7.5 0 004.566 14.288l44.391-14.186c9.287 4.311 25.633 10.173 45.834 10.173 59.524 0 107.951-48.424 107.951-107.946C218.078 48.424 169.651 0 110.127 0z"/><path d="M88.846 89.537a7.502 7.502 0 009.137 11.897c2.299-1.766 8.406-6.456 7.512-14.845-.551-4.987-5.417-11.83-9.402-16.691-5.831-7.114-10.767-11.327-14.643-12.513-3.632-1.126-7.354-.948-11.066.53-7.636 3.052-13.025 8.108-15.585 14.622-2.493 6.344-2.04 13.443 1.313 20.537 7.827 16.522 18.288 30.791 31.093 42.413l.152.139c12.987 11.48 28.352 20.325 45.675 26.293 3.287 1.129 6.513 1.692 9.611 1.692 3.892 0 7.583-.888 10.94-2.658 6.191-3.264 10.621-9.177 12.814-17.115 1.056-3.848.82-7.564-.689-11.024-1.619-3.745-6.35-8.184-14.064-13.193-5.269-3.422-12.601-7.5-17.64-7.5h-.011c-8.406.034-12.397 6.621-13.899 9.102a7.5 7.5 0 0012.83 7.772c.593-.98.969-1.5 1.205-1.772 4.236 1.23 15.567 8.642 17.889 11.761.038.166.043.417-.082.874-.739 2.675-2.268 6.204-5.349 7.828-2.879 1.516-6.312.863-8.677.051-15.413-5.31-29.053-13.142-40.543-23.279l-.01-.01C85.98 114.14 76.664 101.425 69.669 86.66c-1.071-2.268-2.1-5.607-.91-8.634 1.274-3.242 4.613-5.15 7.183-6.177.441-.176.69-.203.871-.179 3.358 1.965 11.969 12.402 13.66 16.477-.244.263-.72.693-1.627 1.39z"/></symbol><symbol viewBox="0 0 344.96 344.96" id="check" xmlns="http://www.w3.org/2000/svg"><g data-name="Слой 2"><path d="M321.85 86.24l-40-23.11-23.1-40H212.5L172.48 0l-40 23.11H86.24l-23.11 40-40 23.1v46.21L0 172.48l23.11 40v46.21l40 23.11 23.11 40h46.21l40 23.1 40-23.11h46.21l23.11-40 40-23.11V212.5l23.11-40-23.11-40V86.24zM156.91 243.07a16.79 16.79 0 01-23.34 0l-50.45-50.44a16.19 16.19 0 010-22.89l13.35-13.35a16.19 16.19 0 0122.89 0l25.87 25.87 80.34-80.35a16.19 16.19 0 0122.89 0l13.35 13.35a16.19 16.19 0 010 22.89z" data-name="Capa 1"/></g></symbol><symbol viewBox="0 0 443.52 443.52" id="chevron-right" xmlns="http://www.w3.org/2000/svg"><path d="M336.226 209.591l-204.8-204.8c-6.78-6.548-17.584-6.36-24.132.42-6.388 6.614-6.388 17.099 0 23.712l192.734 192.734-192.734 192.734c-6.663 6.664-6.663 17.468 0 24.132 6.665 6.663 17.468 6.663 24.132 0l204.8-204.8c6.663-6.665 6.663-17.468 0-24.132z"/></symbol><symbol viewBox="0 0 329.269 329" id="close" xmlns="http://www.w3.org/2000/svg"><path d="M194.8 164.77L323.013 36.555c8.343-8.34 8.343-21.825 0-30.164-8.34-8.34-21.825-8.34-30.164 0L164.633 134.605 36.422 6.391c-8.344-8.34-21.824-8.34-30.164 0-8.344 8.34-8.344 21.824 0 30.164l128.21 128.215L6.259 292.984c-8.344 8.34-8.344 21.825 0 30.164a21.266 21.266 0 0015.082 6.25c5.46 0 10.922-2.09 15.082-6.25l128.21-128.214 128.216 128.214a21.273 21.273 0 0015.082 6.25c5.46 0 10.922-2.09 15.082-6.25 8.343-8.34 8.343-21.824 0-30.164zm0 0"/></symbol><symbol viewBox="0 0 24 24" id="fb" xmlns="http://www.w3.org/2000/svg"><path d="M13.397 20.997v-8.196h2.765l.411-3.209h-3.176V7.548c0-.926.258-1.56 1.587-1.56h1.684v-2.86A22.108 22.108 0 0014.201 3c-2.444 0-4.122 1.492-4.122 4.231v2.355H7.332v3.21h2.753v8.201h3.312z"/></symbol><symbol viewBox="0 0 24 24" id="instagram" xmlns="http://www.w3.org/2000/svg"><path d="M11.999 7.377a4.624 4.624 0 100 9.248 4.624 4.624 0 000-9.248zm0 7.627a3.004 3.004 0 110-6.008 3.004 3.004 0 010 6.008zm4.807-6.719a1.078 1.078 0 100-2.156 1.078 1.078 0 000 2.156z"/><path d="M20.533 6.11A4.605 4.605 0 0017.9 3.48a6.607 6.607 0 00-2.186-.42c-.963-.042-1.268-.054-3.71-.054s-2.755 0-3.71.054a6.554 6.554 0 00-2.184.42 4.6 4.6 0 00-2.633 2.63 6.585 6.585 0 00-.419 2.186c-.043.962-.056 1.267-.056 3.71 0 2.442 0 2.753.056 3.71.015.748.156 1.486.419 2.187a4.61 4.61 0 002.634 2.632 6.583 6.583 0 002.185.45c.963.042 1.268.055 3.71.055s2.755 0 3.71-.055a6.616 6.616 0 002.186-.42 4.613 4.613 0 002.633-2.632c.263-.7.404-1.438.419-2.186.043-.962.056-1.267.056-3.71s0-2.753-.056-3.71a6.583 6.583 0 00-.421-2.217zm-1.218 9.533a5.046 5.046 0 01-.311 1.688 2.987 2.987 0 01-1.712 1.71c-.535.2-1.1.305-1.67.312-.95.044-1.218.055-3.654.055-2.438 0-2.687 0-3.655-.055a4.961 4.961 0 01-1.67-.311 2.984 2.984 0 01-1.718-1.711 5.08 5.08 0 01-.311-1.67c-.043-.95-.053-1.217-.053-3.653 0-2.437 0-2.686.053-3.655a5.038 5.038 0 01.311-1.687c.305-.79.93-1.41 1.719-1.712a5.01 5.01 0 011.669-.311c.95-.043 1.218-.055 3.655-.055s2.687 0 3.654.055a4.96 4.96 0 011.67.31 2.99 2.99 0 011.712 1.713 5.06 5.06 0 01.311 1.669c.043.95.054 1.218.054 3.655 0 2.436 0 2.698-.043 3.654h-.011v-.001z"/></symbol><symbol viewBox="0 0 512 512" id="mail" xmlns="http://www.w3.org/2000/svg"><path d="M467 61H45C20.218 61 0 81.196 0 106v300c0 24.72 20.128 45 45 45h422c24.72 0 45-20.128 45-45V106c0-24.72-20.128-45-45-45zm-6.214 30L256.954 294.833 51.359 91h409.427zM30 399.788V112.069l144.479 143.24L30 399.788zM51.213 421l144.57-144.57 50.657 50.222c5.864 5.814 15.327 5.795 21.167-.046L317 277.213 460.787 421H51.213zM482 399.787L338.213 256 482 112.212v287.575z"/></symbol><symbol viewBox="0 0 480.063 480.063" id="man" xmlns="http://www.w3.org/2000/svg"><path d="M402.032 424.806v47.257a8 8 0 01-16 0v-47.257c0-36.795-29.775-66.572-66.573-66.571-17.411 0-33.208-8.87-42.259-23.728a8 8 0 012.671-10.994 8 8 0 0110.994 2.671c6.122 10.051 16.811 16.051 28.594 16.051 45.637-.002 82.573 36.93 82.573 82.571zm-139.606-80.193a8 8 0 01-6.113 9.52c-21.054 4.587-42.467-.005-59.516-11.642-16.878 18.087-39.176 15.744-36.191 15.744-36.795-.001-66.573 29.773-66.573 66.571v47.257a8 8 0 01-16 0v-47.257c0-45.636 36.929-82.571 82.571-82.571 18.462 0 33.429-14.875 33.429-33.342v-2.107c-34.919-16.697-59.429-51.784-60.923-92.643-14.37-3.455-25.077-16.317-25.077-31.62V141.05c-.437-20.3 2.577-71.143 39.648-106.877C193.456-9.953 266.864-7.15 320.842 18.835c5.261 2.535 6.06 9.643 1.691 13.324 27.345 6.67 50.925 23.48 66.074 47.538.782 1.239 2.214 3.184 1.84 6.287-.232 1.931-.807 3.565-2.295 5.075-9.75 9.888-15.119 22.991-15.119 36.896v54.57a8 8 0 01-16 0v-54.57c0-16.037 5.479-31.259 15.542-43.487-15.338-21.936-39.268-36.044-66.332-38.942l-14.061-1.506c-8.222-.88-9.835-12.207-2.194-15.352l6.395-2.633C213.097-3 124.032 29.261 124.032 140.963v41.56c0 6.348 3.656 11.865 9 14.636v-51.863c0-30.878 25.122-56 56-56h102c30.878 0 56 25.12 56 55.997v65.503c0 69.574-67.988 122.42-137.17 102.053a48.914 48.914 0 01-4.186 16.336c13.458 9.242 30.453 12.97 47.23 9.314a8.001 8.001 0 019.52 6.114zm-22.394-43.425c50.178 0 91-40.822 91-91v-64.895c0-22.054-17.944-39.997-40-39.997h-102c-22.056 0-40 17.944-40 40v64.892c0 50.178 40.822 91 91 91zm81 137.875h-24a8 8 0 000 16h24a8 8 0 000-16z"/></symbol><symbol viewBox="0 0 512 512" id="recycle" xmlns="http://www.w3.org/2000/svg"><path d="M348.794 496a32.267 32.267 0 01-22.812-9.335l-58.535-57.779a31.78 31.78 0 010-45.328l58.534-57.778a32.6 32.6 0 0145.626 0 31.78 31.78 0 010 45.328l-3.155 3.114h60.014a2.493 2.493 0 002.454-1.372 2.23 2.23 0 000-2.589l-48.44-82.815a31.83 31.83 0 0111.844-43.774 32.545 32.545 0 0144.08 11.7l48.44 82.815a65.331 65.331 0 010 66.745 66.9 66.9 0 01-58.378 33.294h-60.014l3.155 3.114a31.781 31.781 0 010 45.329A32.273 32.273 0 01348.794 496zm0-163.557a16.427 16.427 0 00-11.573 4.724l-58.534 57.778a15.78 15.78 0 000 22.554l58.534 57.778a16.54 16.54 0 0023.146 0 15.78 15.78 0 000-22.554l-17.028-16.807a8 8 0 015.621-13.694h79.506a51.051 51.051 0 0044.567-25.372 49.517 49.517 0 000-50.589l-48.44-82.815a16.488 16.488 0 00-22.348-5.873 15.937 15.937 0 00-7.583 9.769 15.638 15.638 0 001.628 12.026l48.439 82.815a18.118 18.118 0 010 18.745 18.411 18.411 0 01-16.265 9.294H348.96a8 8 0 01-5.621-13.693l17.028-16.807a15.781 15.781 0 000-22.555 16.431 16.431 0 00-11.573-4.724zM189.25 438.222H90.517a66.9 66.9 0 01-58.378-33.294 65.327 65.327 0 010-66.744l32.73-55.959-8.214 2.175a32.393 32.393 0 01-39.545-22.611 31.529 31.529 0 013.153-24.189 32.046 32.046 0 0119.715-15.035l79.96-21.148a32.4 32.4 0 0139.545 22.609l21.425 78.926a31.529 31.529 0 01-3.153 24.189 32.043 32.043 0 01-19.716 15.034 32.66 32.66 0 01-8.353 1.09 32.3 32.3 0 01-31.191-23.7l-.247-.91-30.185 51.606a2.228 2.228 0 000 2.59 2.492 2.492 0 002.453 1.371h98.734a32 32 0 110 64zM81.559 261.536a8 8 0 016.905 12.039l-42.515 72.687a49.515 49.515 0 000 50.588 51.049 51.049 0 0044.567 25.372h98.734a16 16 0 100-32H90.517a18.414 18.414 0 01-16.264-9.292 18.119 18.119 0 010-18.747l39.814-68.068a8 8 0 0114.626 1.944l5.243 19.316a16.275 16.275 0 0015.749 11.89 16.667 16.667 0 004.262-.557 16.169 16.169 0 009.952-7.567 15.639 15.639 0 001.567-12l-21.425-78.926a16.354 16.354 0 00-20.01-11.333l-79.962 21.151a16.158 16.158 0 00-9.95 7.567 15.639 15.639 0 00-1.568 12 16.356 16.356 0 0020.012 11.33l26.951-7.13a8.008 8.008 0 012.045-.264zm277.194-46.308a32.685 32.685 0 01-8.354-1.09L270.44 192.99a32.045 32.045 0 01-19.716-15.034 31.529 31.529 0 01-3.153-24.189 32.4 32.4 0 0139.544-22.609l4.672 1.236-29.843-51.021a2.878 2.878 0 00-4.906 0L208.6 164.187a32.546 32.546 0 01-44.081 11.7 31.831 31.831 0 01-11.845-43.774l48.441-82.815a67.826 67.826 0 01116.755 0l29.891 51.1 1.2-4.41A32.4 32.4 0 01388.5 73.38a32.044 32.044 0 0119.714 15.035 31.525 31.525 0 013.153 24.189l-21.423 78.926a32.308 32.308 0 01-31.191 23.698zm-79.979-69.157a16.283 16.283 0 00-15.761 11.887 15.637 15.637 0 001.568 12 16.155 16.155 0 009.949 7.566l79.96 21.148a16.63 16.63 0 004.262.558 16.276 16.276 0 0015.75-11.89l21.425-78.925a15.644 15.644 0 00-1.568-12 16.161 16.161 0 00-9.949-7.566 16.357 16.357 0 00-20.01 11.332L358.2 123a8 8 0 01-14.626 1.942l-39.52-67.565a51.826 51.826 0 00-89.133 0l-48.44 82.814a15.634 15.634 0 00-1.627 12.026 15.93 15.93 0 007.582 9.769 16.492 16.492 0 0022.348-5.873l48.44-82.815a18.877 18.877 0 0132.527 0l39.627 67.749a8 8 0 01-8.95 11.773l-23.407-6.19a16.591 16.591 0 00-4.247-.559z"/></symbol><symbol viewBox="0 0 270.88 270.87" id="tel" xmlns="http://www.w3.org/2000/svg"><g data-name="Слой 2"><path d="M228.64 156.68a29.33 29.33 0 00-41.43 0l-12.5 12.5a181.9 181.9 0 01-73-73l12.49-12.49a29.31 29.31 0 000-41.43L80.52 8.57a29.31 29.31 0 00-41.43 0L12.16 35.5C-3.27 50.92-4 77.44 10 110.17c12.18 28.42 34.47 59.65 62.76 88s59.53 50.58 87.95 62.76c15.55 6.66 29.69 10 41.91 10 13.51 0 24.66-4.06 32.76-12.16l26.93-26.93a29.3 29.3 0 000-41.43zm-14.5 80.8c-4.41 4.4-17.94 5.94-41.61-4.2-25-10.71-52.89-30.74-78.55-56.4S48.3 123.34 37.59 98.34C27.45 74.68 29 61.13 33.39 56.73L59.8 30.32 92.43 63 76.79 78.59a22.92 22.92 0 00-4.24 26.68 211.9 211.9 0 0093.05 93.05 22.92 22.92 0 0026.69-4.25l15.63-15.63 32.63 32.63z" data-name="Слой 1"/></g></symbol><symbol viewBox="0 -39 512 512" id="telegram" xmlns="http://www.w3.org/2000/svg"><path d="M504.094 11.86C497.84 4.21 488.473 0 477.714 0c-5.847 0-12.042 1.23-18.41 3.664L25.907 169.105c-23 8.778-26.097 21.95-25.898 29.02s4.039 20.047 27.5 27.512c.14.043.281.086.422.125l89.898 25.726 48.617 139.024c6.63 18.953 21.508 30.726 38.836 30.726 10.926 0 21.672-4.578 31.078-13.234l55.606-51.2 80.652 64.942c.008.008.02.012.028.02l.765.617.215.168c8.965 6.953 18.75 10.625 28.309 10.629h.003c18.676 0 33.547-13.825 37.88-35.215l71.011-350.64c2.852-14.075.461-26.669-6.734-35.466zM147.902 246.601l173.442-88.606L213.348 272.75a14.975 14.975 0 00-3.641 6.684l-20.824 84.351zm68.133 139.332c-.719.66-1.441 1.25-2.164 1.793l19.32-78.25 35.145 28.3zm265.39-344.567l-71.01 350.645c-.685 3.355-2.868 11.164-8.481 11.164-2.774 0-6.258-1.512-9.825-4.258l-91.39-73.586a.173.173 0 00-.043-.031l-54.38-43.79 156.177-165.949a15 15 0 00-17.746-23.636L127.859 223.152l-91.12-26.07 433.265-165.39c3.66-1.399 6.215-1.692 7.71-1.692.919 0 2.552.11 3.157.855.797.973 1.813 4.29.555 10.512zm0 0"/></symbol><symbol viewBox="0 0 24 25" id="viber" xmlns="http://www.w3.org/2000/svg"><path d="M17.19 21.407c-.338.112-3.318.883-7.197.547-2.32 2.77-2.657 3.245-3.403 3.003-.652-.205-.613-1.226-.613-1.226l.005-2.52h-.005C.309 19.561.388 13.48.455 10.231c.066-3.245.675-5.867 2.402-7.653 3.846-3.652 14.702-3.2 17.917-.138l-.001.001c1.991 1.793 3.095 5.757 2.35 12.035-.717 6.082-5.15 6.668-5.933 6.93zm-.623-1.774c.66-.22 4.252-.542 4.862-5.619-.006-.253 1.049-7.678-1.916-10.306C17.088 1.428 7.57.72 4.196 3.885 2.734 5.38 2.238 7.6 2.186 10.31c-.052 2.71-.335 7.889 4.47 9.266 0 0-.019 3.846-.019 4.183-.004.512.27.536.52.278.763-.795 3.219-3.856 3.219-3.856 3.29.22 5.909-.454 6.191-.548z"/><path d="M11.73 4.48c-.4 0-.4.625 0 .63 3.112.024 5.675 2.193 5.703 6.171 0 .42.614.415.61-.005h-.002c-.033-4.287-2.831-6.772-6.31-6.796z"/><path d="M15.828 10.622c-.01.415.604.434.61.015.05-2.364-1.407-4.31-4.145-4.516-.401-.03-.443.601-.043.63 2.375.18 3.626 1.801 3.578 3.871zm-.659 2.686c-.515-.298-1.039-.112-1.255.18l-.453.587c-.23.298-.66.258-.66.258-3.14-.83-3.98-4.115-3.98-4.115s-.039-.445.249-.684l.567-.469c.283-.225.462-.766.174-1.298-.771-1.393-1.289-1.873-1.553-2.242-.277-.347-.693-.425-1.127-.19h-.009c-.901.526-1.888 1.513-1.572 2.528.539 1.071 1.528 4.485 4.682 7.064 1.483 1.22 3.829 2.47 4.824 2.758l.01.015c.981.327 1.935-.698 2.445-1.626v-.008c.226-.448.15-.873-.18-1.152-.585-.57-1.468-1.2-2.162-1.606z"/><path d="M12.716 8.44c1.001.06 1.487.582 1.539 1.656.019.42.628.39.61-.03-.068-1.401-.799-2.182-2.115-2.255-.401-.024-.439.606-.034.63z"/></symbol><symbol viewBox="0 0 24 24" id="vk" xmlns="http://www.w3.org/2000/svg"><path d="M21.579 6.855c.14-.465 0-.806-.662-.806h-2.193c-.558 0-.813.295-.953.619 0 0-1.115 2.719-2.695 4.482-.51.513-.743.675-1.021.675-.139 0-.341-.162-.341-.627V6.855c0-.558-.161-.806-.626-.806H9.642c-.348 0-.558.258-.558.504 0 .528.79.65.871 2.138v3.228c0 .707-.127.836-.407.836-.743 0-2.551-2.73-3.624-5.853-.209-.607-.42-.852-.98-.852H2.752c-.627 0-.752.295-.752.619 0 .582.743 3.462 3.461 7.27 1.812 2.602 4.363 4.012 6.687 4.012 1.393 0 1.565-.313 1.565-.853v-1.966c0-.626.133-.752.574-.752.324 0 .882.164 2.183 1.417 1.486 1.486 1.732 2.153 2.567 2.153h2.192c.626 0 .939-.313.759-.931-.197-.615-.907-1.51-1.849-2.57-.512-.603-1.277-1.253-1.51-1.578-.325-.42-.231-.604 0-.976.001 0 2.672-3.761 2.95-5.04z"/></symbol><symbol viewBox="-23 -21 682 682.667" id="whatsapp" xmlns="http://www.w3.org/2000/svg"><path d="M544.387 93.008C484.512 33.063 404.883.035 320.05 0 145.246 0 2.98 142.262 2.91 317.113c-.024 55.895 14.577 110.457 42.331 158.551L.25 640l168.121-44.102c46.324 25.27 98.477 38.586 151.55 38.602h.134c174.785 0 317.066-142.273 317.132-317.133.036-84.742-32.921-164.418-92.8-224.36zM320.05 580.94h-.11c-47.296-.02-93.683-12.73-134.16-36.742l-9.62-5.715-99.766 26.172 26.628-97.27-6.27-9.972c-26.386-41.969-40.32-90.476-40.296-140.281.055-145.332 118.305-263.57 263.7-263.57 70.406.023 136.59 27.476 186.355 77.3s77.156 116.051 77.133 186.485C583.582 462.69 465.34 580.94 320.05 580.94zm144.586-197.418c-7.922-3.968-46.883-23.132-54.149-25.78-7.258-2.645-12.547-3.962-17.824 3.968-5.285 7.93-20.469 25.781-25.094 31.066-4.625 5.29-9.242 5.953-17.168 1.985-7.925-3.965-33.457-12.336-63.726-39.332-23.555-21.012-39.457-46.961-44.082-54.89-4.617-7.938-.04-11.813 3.476-16.173 8.578-10.652 17.168-21.82 19.809-27.105 2.644-5.29 1.32-9.918-.664-13.883-1.977-3.965-17.824-42.969-24.426-58.84-6.437-15.445-12.965-13.36-17.832-13.601-4.617-.231-9.902-.278-15.187-.278-5.282 0-13.868 1.98-21.133 9.918-7.262 7.934-27.73 27.102-27.73 66.106s28.394 76.683 32.355 81.972c3.96 5.29 55.879 85.328 135.367 119.649 18.906 8.172 33.664 13.043 45.176 16.695 18.984 6.031 36.254 5.18 49.91 3.14 15.226-2.277 46.879-19.171 53.488-37.68 6.602-18.51 6.602-34.374 4.617-37.683-1.976-3.304-7.261-5.285-15.183-9.254zm0 0" fill-rule="evenodd"/></symbol></svg>