<?xml version="1.0" encoding="utf-8"?><svg xmlns="http://www.w3.org/2000/svg" xmlns:xlink="http://www.w3.org/1999/xlink"><symbol viewBox="0 0 22 24" id="basket" xmlns="http://www.w3.org/2000/svg"><g clip-path="url(#aclip0)"><path d="M10.363 18.443a2.046 2.046 0 00-2.045 2.042 2.046 2.046 0 004.09 0 2.046 2.046 0 00-2.045-2.042zm6.134 0a2.046 2.046 0 00-2.045 2.042 2.046 2.046 0 004.089 0 2.046 2.046 0 00-2.044-2.042zm3.978-8.199L7.413 6.891a.614.614 0 00-.75.73L8.67 16.4h-.786L5.482 5.895a.613.613 0 00-.474-.464l-4.27-.882A.614.614 0 00.489 5.75l3.885.802L6.797 17.15a.613.613 0 00.598.477h12.07a.615.615 0 00.607-.53l.858-6.175a.613.613 0 00-.455-.678zm-8.14 3.91a.613.613 0 01-1.227 0v-2.696a.613.613 0 011.227 0v2.696zm2.625 0a.613.613 0 01-1.227 0v-1.88a.613.613 0 011.227 0v1.88zm2.625 0a.613.613 0 01-1.227 0v-1.226a.613.613 0 011.227 0v1.226z"/></g><path fill-rule="evenodd" clip-rule="evenodd" d="M16.268 4.568a2.996 2.996 0 00-1.693-.523c-.627 0-1.21.193-1.693.523-.28-.843-.492-1.752-.492-2.383C12.39.98 13.37 0 14.575 0s2.185.98 2.185 2.185c0 .631-.212 1.54-.492 2.383zm-4.722 2.274l.024.006v-.011l-.024.005zm4.972 1.217c-1.333-.33-2.766-.681-4.129-1.013a2.185 2.185 0 114.129 1.013zm4.436 1.103c-.866-.217-2.155-.538-3.618-.9a2.995 2.995 0 00.243-1.425c.87.18 1.762.45 2.308.765.596.344.969.928 1.067 1.56zM9.869 6.439c-.36-.086-.706-.167-1.03-.243a2.19 2.19 0 01-.376-2.667 2.188 2.188 0 013.147-.7c.098.738.338 1.599.61 2.353a3.01 3.01 0 00-.449.774c-.628.113-1.305.278-1.902.483zm10.124.075a3.43 3.43 0 01-.217.114c-.696-.295-1.587-.526-2.397-.672a3.01 3.01 0 00-.449-.774c.262-.727.494-1.553.599-2.273.095-.067.189-.128.278-.18a2.188 2.188 0 012.986.8 2.188 2.188 0 01-.8 2.985z"/><defs><clipPath id="aclip0"><path transform="translate(0 3.064)" d="M0 0h20.936v20.936H0z"/></clipPath></defs></symbol><symbol viewBox="0 0 220.262 220.262" id="call" xmlns="http://www.w3.org/2000/svg"><path d="M110.127 0C50.606 0 2.184 48.424 2.184 107.944c0 23.295 9.455 44.211 13.521 52.123a7.501 7.501 0 0013.342-6.856c-3.566-6.941-11.862-25.247-11.862-45.268C17.184 56.695 58.878 15 110.127 15c51.254 0 92.951 41.695 92.951 92.944 0 51.251-41.697 92.946-92.951 92.946-20.044 0-35.971-6.94-41.889-9.925a7.493 7.493 0 00-5.66-.447l-47.242 15.097a7.5 7.5 0 004.566 14.288l44.391-14.186c9.287 4.311 25.633 10.173 45.834 10.173 59.524 0 107.951-48.424 107.951-107.946C218.078 48.424 169.651 0 110.127 0z"/><path d="M88.846 89.537a7.502 7.502 0 009.137 11.897c2.299-1.766 8.406-6.456 7.512-14.845-.551-4.987-5.417-11.83-9.402-16.691-5.831-7.114-10.767-11.327-14.643-12.513-3.632-1.126-7.354-.948-11.066.53-7.636 3.052-13.025 8.108-15.585 14.622-2.493 6.344-2.04 13.443 1.313 20.537 7.827 16.522 18.288 30.791 31.093 42.413l.152.139c12.987 11.48 28.352 20.325 45.675 26.293 3.287 1.129 6.513 1.692 9.611 1.692 3.892 0 7.583-.888 10.94-2.658 6.191-3.264 10.621-9.177 12.814-17.115 1.056-3.848.82-7.564-.689-11.024-1.619-3.745-6.35-8.184-14.064-13.193-5.269-3.422-12.601-7.5-17.64-7.5h-.011c-8.406.034-12.397 6.621-13.899 9.102a7.5 7.5 0 0012.83 7.772c.593-.98.969-1.5 1.205-1.772 4.236 1.23 15.567 8.642 17.889 11.761.038.166.043.417-.082.874-.739 2.675-2.268 6.204-5.349 7.828-2.879 1.516-6.312.863-8.677.051-15.413-5.31-29.053-13.142-40.543-23.279l-.01-.01C85.98 114.14 76.664 101.425 69.669 86.66c-1.071-2.268-2.1-5.607-.91-8.634 1.274-3.242 4.613-5.15 7.183-6.177.441-.176.69-.203.871-.179 3.358 1.965 11.969 12.402 13.66 16.477-.244.263-.72.693-1.627 1.39z"/></symbol><symbol viewBox="0 0 344.96 344.96" id="check" xmlns="http://www.w3.org/2000/svg"><g data-name="Слой 2"><path d="M321.85 86.24l-40-23.11-23.1-40H212.5L172.48 0l-40 23.11H86.24l-23.11 40-40 23.1v46.21L0 172.48l23.11 40v46.21l40 23.11 23.11 40h46.21l40 23.1 40-23.11h46.21l23.11-40 40-23.11V212.5l23.11-40-23.11-40V86.24zM156.91 243.07a16.79 16.79 0 01-23.34 0l-50.45-50.44a16.19 16.19 0 010-22.89l13.35-13.35a16.19 16.19 0 0122.89 0l25.87 25.87 80.34-80.35a16.19 16.19 0 0122.89 0l13.35 13.35a16.19 16.19 0 010 22.89z" data-name="Capa 1"/></g></symbol><symbol viewBox="0 0 443.52 443.52" id="chevron-right" xmlns="http://www.w3.org/2000/svg"><path d="M336.226 209.591l-204.8-204.8c-6.78-6.548-17.584-6.36-24.132.42-6.388 6.614-6.388 17.099 0 23.712l192.734 192.734-192.734 192.734c-6.663 6.664-6.663 17.468 0 24.132 6.665 6.663 17.468 6.663 24.132 0l204.8-204.8c6.663-6.665 6.663-17.468 0-24.132z"/></symbol><symbol viewBox="0 0 24 24" id="fb" xmlns="http://www.w3.org/2000/svg"><path d="M13.397 20.997v-8.196h2.765l.411-3.209h-3.176V7.548c0-.926.258-1.56 1.587-1.56h1.684v-2.86A22.108 22.108 0 0014.201 3c-2.444 0-4.122 1.492-4.122 4.231v2.355H7.332v3.21h2.753v8.201h3.312z"/></symbol><symbol viewBox="0 0 24 24" id="instagram" xmlns="http://www.w3.org/2000/svg"><path d="M11.999 7.377a4.624 4.624 0 100 9.248 4.624 4.624 0 000-9.248zm0 7.627a3.004 3.004 0 110-6.008 3.004 3.004 0 010 6.008zm4.807-6.719a1.078 1.078 0 100-2.156 1.078 1.078 0 000 2.156z"/><path d="M20.533 6.11A4.605 4.605 0 0017.9 3.48a6.607 6.607 0 00-2.186-.42c-.963-.042-1.268-.054-3.71-.054s-2.755 0-3.71.054a6.554 6.554 0 00-2.184.42 4.6 4.6 0 00-2.633 2.63 6.585 6.585 0 00-.419 2.186c-.043.962-.056 1.267-.056 3.71 0 2.442 0 2.753.056 3.71.015.748.156 1.486.419 2.187a4.61 4.61 0 002.634 2.632 6.583 6.583 0 002.185.45c.963.042 1.268.055 3.71.055s2.755 0 3.71-.055a6.616 6.616 0 002.186-.42 4.613 4.613 0 002.633-2.632c.263-.7.404-1.438.419-2.186.043-.962.056-1.267.056-3.71s0-2.753-.056-3.71a6.583 6.583 0 00-.421-2.217zm-1.218 9.533a5.046 5.046 0 01-.311 1.688 2.987 2.987 0 01-1.712 1.71c-.535.2-1.1.305-1.67.312-.95.044-1.218.055-3.654.055-2.438 0-2.687 0-3.655-.055a4.961 4.961 0 01-1.67-.311 2.984 2.984 0 01-1.718-1.711 5.08 5.08 0 01-.311-1.67c-.043-.95-.053-1.217-.053-3.653 0-2.437 0-2.686.053-3.655a5.038 5.038 0 01.311-1.687c.305-.79.93-1.41 1.719-1.712a5.01 5.01 0 011.669-.311c.95-.043 1.218-.055 3.655-.055s2.687 0 3.654.055a4.96 4.96 0 011.67.31 2.99 2.99 0 011.712 1.713 5.06 5.06 0 01.311 1.669c.043.95.054 1.218.054 3.655 0 2.436 0 2.698-.043 3.654h-.011v-.001z"/></symbol><symbol viewBox="0 0 270.88 270.87" id="tel" xmlns="http://www.w3.org/2000/svg"><g data-name="Слой 2"><path d="M228.64 156.68a29.33 29.33 0 00-41.43 0l-12.5 12.5a181.9 181.9 0 01-73-73l12.49-12.49a29.31 29.31 0 000-41.43L80.52 8.57a29.31 29.31 0 00-41.43 0L12.16 35.5C-3.27 50.92-4 77.44 10 110.17c12.18 28.42 34.47 59.65 62.76 88s59.53 50.58 87.95 62.76c15.55 6.66 29.69 10 41.91 10 13.51 0 24.66-4.06 32.76-12.16l26.93-26.93a29.3 29.3 0 000-41.43zm-14.5 80.8c-4.41 4.4-17.94 5.94-41.61-4.2-25-10.71-52.89-30.74-78.55-56.4S48.3 123.34 37.59 98.34C27.45 74.68 29 61.13 33.39 56.73L59.8 30.32 92.43 63 76.79 78.59a22.92 22.92 0 00-4.24 26.68 211.9 211.9 0 0093.05 93.05 22.92 22.92 0 0026.69-4.25l15.63-15.63 32.63 32.63z" data-name="Слой 1"/></g></symbol><symbol viewBox="0 -39 512 512" id="telegram" xmlns="http://www.w3.org/2000/svg"><path d="M504.094 11.86C497.84 4.21 488.473 0 477.714 0c-5.847 0-12.042 1.23-18.41 3.664L25.907 169.105c-23 8.778-26.097 21.95-25.898 29.02s4.039 20.047 27.5 27.512c.14.043.281.086.422.125l89.898 25.726 48.617 139.024c6.63 18.953 21.508 30.726 38.836 30.726 10.926 0 21.672-4.578 31.078-13.234l55.606-51.2 80.652 64.942c.008.008.02.012.028.02l.765.617.215.168c8.965 6.953 18.75 10.625 28.309 10.629h.003c18.676 0 33.547-13.825 37.88-35.215l71.011-350.64c2.852-14.075.461-26.669-6.734-35.466zM147.902 246.601l173.442-88.606L213.348 272.75a14.975 14.975 0 00-3.641 6.684l-20.824 84.351zm68.133 139.332c-.719.66-1.441 1.25-2.164 1.793l19.32-78.25 35.145 28.3zm265.39-344.567l-71.01 350.645c-.685 3.355-2.868 11.164-8.481 11.164-2.774 0-6.258-1.512-9.825-4.258l-91.39-73.586a.173.173 0 00-.043-.031l-54.38-43.79 156.177-165.949a15 15 0 00-17.746-23.636L127.859 223.152l-91.12-26.07 433.265-165.39c3.66-1.399 6.215-1.692 7.71-1.692.919 0 2.552.11 3.157.855.797.973 1.813 4.29.555 10.512zm0 0"/></symbol><symbol viewBox="-22 0 512 512" id="viber" xmlns="http://www.w3.org/2000/svg"><path d="M468.484 180.707c.004-48.086-18.843-93.414-53.066-127.637C381.195 18.848 335.868 0 287.778 0H180.702C132.621 0 87.29 18.848 53.07 53.066 18.848 87.293 0 132.621 0 180.707v84.164c0 37.242 11.36 73.063 32.852 103.598 18.96 26.937 44.46 47.98 74.191 61.32v48.344c0 24.996 13.996 33.867 25.98 33.867 8.563 0 17.125-4.227 25.461-12.559l53.86-53.859 75.437-.004c48.086 0 93.414-18.848 127.637-53.066 34.223-34.223 53.07-79.555 53.07-127.64zM287.781 415.578l-81.648.004c-3.98 0-7.793 1.578-10.606 4.39l-58.254 58.255c-.074.078-.152.152-.23.226v-58.676a15 15 0 00-9.652-14.015c-58.25-22.227-97.387-78.848-97.387-140.89v-84.165c0-40.074 15.726-77.871 44.281-106.43C102.84 45.727 140.633 30 180.707 30h107.07c40.075 0 77.871 15.727 106.426 44.281 28.559 28.559 44.285 66.356 44.281 106.426l.004 84.164c-.004 83.102-67.61 150.707-150.707 150.707zm0 0"/><path d="M274.133 245.336c-5.856-5.86-15.352-5.86-21.211 0l-12.117 12.113-46.953-46.949 12.117-12.113a15.003 15.003 0 000-21.215l-56.805-56.805a14.996 14.996 0 00-21.21 0l-39.766 39.766c-21.504 21.504-21.504 56.5.003 78.015l124.965 124.973c10.39 10.387 24.246 16.106 39.008 16.106 14.766 0 28.621-5.72 39.012-16.106l39.765-39.762a15.012 15.012 0 004.395-10.609c0-3.977-1.582-7.793-4.395-10.605zm-4.172 96.566c-4.723 4.723-11.043 7.325-17.797 7.325-6.754 0-13.074-2.602-17.797-7.325l-124.96-124.968c-9.813-9.813-9.817-25.782-.005-35.59l29.157-29.16 35.59 35.593-12.118 12.114a15.003 15.003 0 00-4.394 10.605c0 3.98 1.582 7.793 4.394 10.61l68.164 68.164c5.86 5.855 15.356 5.859 21.215 0l12.117-12.114 35.59 35.59zM237.883 66.355c-8.285 0-15 6.715-15 15 0 8.282 6.715 15 15 15 34.328 0 66.605 13.368 90.879 37.645 24.277 24.273 37.644 56.547 37.644 90.879 0 8.281 6.715 15 15 15 8.281 0 15-6.715 15-15 0-42.344-16.488-82.152-46.43-112.094-29.94-29.941-69.75-46.43-112.093-46.43zm0 0"/><path d="M302.14 224.875c0 8.281 6.72 15 15 15 8.286 0 15-6.719 15-15 0-51.973-42.285-94.254-94.257-94.254-8.285 0-15 6.715-15 15s6.715 15 15 15c35.433 0 64.258 28.824 64.258 64.254zm0 0"/></symbol><symbol viewBox="0 0 24 24" id="vk" xmlns="http://www.w3.org/2000/svg"><path d="M21.579 6.855c.14-.465 0-.806-.662-.806h-2.193c-.558 0-.813.295-.953.619 0 0-1.115 2.719-2.695 4.482-.51.513-.743.675-1.021.675-.139 0-.341-.162-.341-.627V6.855c0-.558-.161-.806-.626-.806H9.642c-.348 0-.558.258-.558.504 0 .528.79.65.871 2.138v3.228c0 .707-.127.836-.407.836-.743 0-2.551-2.73-3.624-5.853-.209-.607-.42-.852-.98-.852H2.752c-.627 0-.752.295-.752.619 0 .582.743 3.462 3.461 7.27 1.812 2.602 4.363 4.012 6.687 4.012 1.393 0 1.565-.313 1.565-.853v-1.966c0-.626.133-.752.574-.752.324 0 .882.164 2.183 1.417 1.486 1.486 1.732 2.153 2.567 2.153h2.192c.626 0 .939-.313.759-.931-.197-.615-.907-1.51-1.849-2.57-.512-.603-1.277-1.253-1.51-1.578-.325-.42-.231-.604 0-.976.001 0 2.672-3.761 2.95-5.04z"/></symbol><symbol viewBox="-23 -21 682 682.667" id="whatsapp" xmlns="http://www.w3.org/2000/svg"><path d="M544.387 93.008C484.512 33.063 404.883.035 320.05 0 145.246 0 2.98 142.262 2.91 317.113c-.024 55.895 14.577 110.457 42.331 158.551L.25 640l168.121-44.102c46.324 25.27 98.477 38.586 151.55 38.602h.134c174.785 0 317.066-142.273 317.132-317.133.036-84.742-32.921-164.418-92.8-224.36zM320.05 580.94h-.11c-47.296-.02-93.683-12.73-134.16-36.742l-9.62-5.715-99.766 26.172 26.628-97.27-6.27-9.972c-26.386-41.969-40.32-90.476-40.296-140.281.055-145.332 118.305-263.57 263.7-263.57 70.406.023 136.59 27.476 186.355 77.3s77.156 116.051 77.133 186.485C583.582 462.69 465.34 580.94 320.05 580.94zm144.586-197.418c-7.922-3.968-46.883-23.132-54.149-25.78-7.258-2.645-12.547-3.962-17.824 3.968-5.285 7.93-20.469 25.781-25.094 31.066-4.625 5.29-9.242 5.953-17.168 1.985-7.925-3.965-33.457-12.336-63.726-39.332-23.555-21.012-39.457-46.961-44.082-54.89-4.617-7.938-.04-11.813 3.476-16.173 8.578-10.652 17.168-21.82 19.809-27.105 2.644-5.29 1.32-9.918-.664-13.883-1.977-3.965-17.824-42.969-24.426-58.84-6.437-15.445-12.965-13.36-17.832-13.601-4.617-.231-9.902-.278-15.187-.278-5.282 0-13.868 1.98-21.133 9.918-7.262 7.934-27.73 27.102-27.73 66.106s28.394 76.683 32.355 81.972c3.96 5.29 55.879 85.328 135.367 119.649 18.906 8.172 33.664 13.043 45.176 16.695 18.984 6.031 36.254 5.18 49.91 3.14 15.226-2.277 46.879-19.171 53.488-37.68 6.602-18.51 6.602-34.374 4.617-37.683-1.976-3.304-7.261-5.285-15.183-9.254zm0 0" fill-rule="evenodd"/></symbol></svg>