<svg height="512" viewBox="0 0 512 512" width="512" xmlns="http://www.w3.org/2000/svg"><g id="Outline"><path d="m348.794 496a32.267 32.267 0 0 1 -22.812-9.335l-58.535-57.779a31.78 31.78 0 0 1 0-45.328l58.534-57.778a32.6 32.6 0 0 1 45.626 0 31.78 31.78 0 0 1 0 45.328l-3.155 3.114h60.014a2.493 2.493 0 0 0 2.454-1.372 2.23 2.23 0 0 0 0-2.589l-48.44-82.815a31.83 31.83 0 0 1 11.844-43.774 32.545 32.545 0 0 1 44.08 11.7l48.44 82.815a65.331 65.331 0 0 1 0 66.745 66.9 66.9 0 0 1 -58.378 33.294h-60.014l3.155 3.114a31.781 31.781 0 0 1 0 45.329 32.273 32.273 0 0 1 -22.813 9.331zm0-163.557a16.427 16.427 0 0 0 -11.573 4.724l-58.534 57.778a15.78 15.78 0 0 0 0 22.554l58.534 57.778a16.54 16.54 0 0 0 23.146 0 15.78 15.78 0 0 0 0-22.554l-17.028-16.807a8 8 0 0 1 5.621-13.694h79.506a51.051 51.051 0 0 0 44.567-25.372 49.517 49.517 0 0 0 0-50.589l-48.44-82.815a16.488 16.488 0 0 0 -22.348-5.873 15.937 15.937 0 0 0 -7.583 9.769 15.638 15.638 0 0 0 1.628 12.026l48.439 82.815a18.118 18.118 0 0 1 0 18.745 18.411 18.411 0 0 1 -16.265 9.294h-79.504a8 8 0 0 1 -5.621-13.693l17.028-16.807a15.781 15.781 0 0 0 0-22.555 16.431 16.431 0 0 0 -11.573-4.724z"/><path d="m189.25 438.222h-98.733a66.9 66.9 0 0 1 -58.378-33.294 65.327 65.327 0 0 1 0-66.744l32.73-55.959-8.214 2.175a32.393 32.393 0 0 1 -39.545-22.611 31.529 31.529 0 0 1 3.153-24.189 32.046 32.046 0 0 1 19.715-15.035l79.96-21.148a32.4 32.4 0 0 1 39.545 22.609l21.425 78.926a31.529 31.529 0 0 1 -3.153 24.189 32.043 32.043 0 0 1 -19.716 15.034 32.66 32.66 0 0 1 -8.353 1.09 32.3 32.3 0 0 1 -31.191-23.7l-.247-.91-30.185 51.606a2.228 2.228 0 0 0 0 2.59 2.492 2.492 0 0 0 2.453 1.371h98.734a32 32 0 1 1 0 64zm-107.691-176.686a8 8 0 0 1 6.905 12.039l-42.515 72.687a49.515 49.515 0 0 0 0 50.588 51.049 51.049 0 0 0 44.567 25.372h98.734a16 16 0 1 0 0-32h-98.733a18.414 18.414 0 0 1 -16.264-9.292 18.119 18.119 0 0 1 0-18.747l39.814-68.068a8 8 0 0 1 14.626 1.944l5.243 19.316a16.275 16.275 0 0 0 15.749 11.89 16.667 16.667 0 0 0 4.262-.557 16.169 16.169 0 0 0 9.952-7.567 15.639 15.639 0 0 0 1.567-12l-21.425-78.926a16.354 16.354 0 0 0 -20.01-11.333l-79.962 21.151a16.158 16.158 0 0 0 -9.95 7.567 15.639 15.639 0 0 0 -1.568 12 16.356 16.356 0 0 0 20.012 11.33l26.951-7.13a8.008 8.008 0 0 1 2.045-.264z"/><path d="m358.753 215.228a32.685 32.685 0 0 1 -8.354-1.09l-79.959-21.148a32.045 32.045 0 0 1 -19.716-15.034 31.529 31.529 0 0 1 -3.153-24.189 32.4 32.4 0 0 1 39.544-22.609l4.672 1.236-29.843-51.021a2.878 2.878 0 0 0 -4.906 0l-48.438 82.814a32.546 32.546 0 0 1 -44.081 11.7 31.831 31.831 0 0 1 -11.845-43.774l48.441-82.815a67.826 67.826 0 0 1 116.755 0l29.891 51.1 1.2-4.41a32.4 32.4 0 0 1 39.539-22.608 32.044 32.044 0 0 1 19.714 15.035 31.525 31.525 0 0 1 3.153 24.189l-21.423 78.926a32.308 32.308 0 0 1 -31.191 23.698zm-79.979-69.157a16.283 16.283 0 0 0 -15.761 11.887 15.637 15.637 0 0 0 1.568 12 16.155 16.155 0 0 0 9.949 7.566l79.96 21.148a16.63 16.63 0 0 0 4.262.558 16.276 16.276 0 0 0 15.75-11.89l21.425-78.925a15.644 15.644 0 0 0 -1.568-12 16.161 16.161 0 0 0 -9.949-7.566 16.357 16.357 0 0 0 -20.01 11.332l-6.2 22.819a8 8 0 0 1 -14.626 1.942l-39.52-67.565a51.826 51.826 0 0 0 -89.133 0l-48.44 82.814a15.634 15.634 0 0 0 -1.627 12.026 15.93 15.93 0 0 0 7.582 9.769 16.492 16.492 0 0 0 22.348-5.873l48.44-82.815a18.877 18.877 0 0 1 32.527 0l39.627 67.749a8 8 0 0 1 -8.95 11.773l-23.407-6.19a16.591 16.591 0 0 0 -4.247-.559z"/></g></svg>