<svg xmlns="http://www.w3.org/2000/svg" viewBox="0 0 270.88 270.87"><title>tel</title><g id="Слой_2" data-name="Слой 2"><g id="Слой_1-2" data-name="Слой 1"><path d="M228.64,156.68a29.33,29.33,0,0,0-41.43,0l-12.5,12.5a181.9,181.9,0,0,1-73-73l12.49-12.49a29.31,29.31,0,0,0,0-41.43L80.52,8.57a29.31,29.31,0,0,0-41.43,0L12.16,35.5C-3.27,50.92-4,77.44,10,110.17c12.18,28.42,34.47,59.65,62.76,88s59.53,50.58,87.95,62.76c15.55,6.66,29.69,10,41.91,10,13.51,0,24.66-4.06,32.76-12.16l26.93-26.93h0a29.3,29.3,0,0,0,0-41.43Zm-14.5,80.8c-4.41,4.4-17.94,5.94-41.61-4.2-25-10.71-52.89-30.74-78.55-56.4S48.3,123.34,37.59,98.34C27.45,74.68,29,61.13,33.39,56.73L59.8,30.32,92.43,63,76.79,78.59a22.92,22.92,0,0,0-4.24,26.68,211.9,211.9,0,0,0,93.05,93.05,22.92,22.92,0,0,0,26.69-4.25l15.63-15.63,32.63,32.63Z"/></g></g></svg>