<svg xmlns="http://www.w3.org/2000/svg" width="24" height="25" viewBox="0 0 24 25"><g><g><path fill="#fff" d="M17.19 21.407c-.338.112-3.318.883-7.197.547-2.32 2.77-2.657 3.245-3.403 3.003-.652-.205-.613-1.226-.613-1.226l.005-2.52h-.005C.309 19.561.388 13.48.455 10.231c.066-3.245.675-5.867 2.402-7.653 3.846-3.652 14.702-3.2 17.917-.138l-.001.001c1.991 1.793 3.095 5.757 2.35 12.035-.717 6.082-5.15 6.668-5.933 6.93zm-.623-1.774c.66-.22 4.252-.542 4.862-5.619-.006-.253 1.049-7.678-1.916-10.306C17.088 1.428 7.57.72 4.196 3.885 2.734 5.38 2.238 7.6 2.186 10.31c-.052 2.71-.335 7.889 4.47 9.266 0 0-.019 3.846-.019 4.183-.004.512.27.536.52.278.763-.795 3.219-3.856 3.219-3.856 3.29.22 5.909-.454 6.191-.548z"/></g><g><path fill="#fff" d="M11.73 4.48c-.4 0-.4.625 0 .63 3.112.024 5.675 2.193 5.703 6.171 0 .42.614.415.61-.005h-.002c-.033-4.287-2.831-6.772-6.31-6.796z"/></g><g><path fill="#fff" d="M15.828 10.622c-.01.415.604.434.61.015.05-2.364-1.407-4.31-4.145-4.516-.401-.03-.443.601-.043.63 2.375.18 3.626 1.801 3.578 3.871z"/></g><g><path fill="#fff" d="M15.169 13.308c-.515-.298-1.039-.112-1.255.18l-.453.587c-.23.298-.66.258-.66.258-3.14-.83-3.98-4.115-3.98-4.115s-.039-.445.249-.684l.567-.469c.283-.225.462-.766.174-1.298-.771-1.393-1.289-1.873-1.553-2.242-.277-.347-.693-.425-1.127-.19h-.009c-.901.526-1.888 1.513-1.572 2.528.539 1.071 1.528 4.485 4.682 7.064 1.483 1.22 3.829 2.47 4.824 2.758l.01.015c.981.327 1.935-.698 2.445-1.626v-.008c.226-.448.15-.873-.18-1.152-.585-.57-1.468-1.2-2.162-1.606z"/></g><g><path fill="#fff" d="M12.716 8.44c1.001.06 1.487.582 1.539 1.656.019.42.628.39.61-.03-.068-1.401-.799-2.182-2.115-2.255-.401-.024-.439.606-.034.63z"/></g></g></svg>